<svg width="21" height="21" viewBox="0 0 21 21" fill="none" xmlns="http://www.w3.org/2000/svg">
<path d="M10.5 19.25C15.3325 19.25 19.25 15.3325 19.25 10.5C19.25 5.66751 15.3325 1.75 10.5 1.75C5.66751 1.75 1.75 5.66751 1.75 10.5C1.75 15.3325 5.66751 19.25 10.5 19.25Z" stroke="white" stroke-width="2" stroke-linecap="round" stroke-linejoin="round"/>
<path d="M7.95361 7.87501C8.15933 7.29022 8.56537 6.7971 9.09982 6.483C9.63428 6.1689 10.2626 6.05408 10.8736 6.15888C11.4846 6.26369 12.0388 6.58134 12.4381 7.0556C12.8373 7.52985 13.0558 8.13009 13.0549 8.75001C13.0549 10.5 10.4299 11.375 10.4299 11.375" stroke="white" stroke-width="2" stroke-linecap="round" stroke-linejoin="round"/>
<path d="M10.5 14.875H10.5088" stroke="white" stroke-width="2" stroke-linecap="round" stroke-linejoin="round"/>
</svg>
