<svg width="26" height="25" viewBox="0 0 26 25" fill="none" xmlns="http://www.w3.org/2000/svg">
<path d="M19.2734 8.33301C19.2734 6.6754 18.615 5.08569 17.4429 3.91359C16.2708 2.74149 14.681 2.08301 13.0234 2.08301C11.3658 2.08301 9.77612 2.74149 8.60402 3.91359C7.43192 5.08569 6.77344 6.6754 6.77344 8.33301C6.77344 15.6247 3.64844 17.708 3.64844 17.708H22.3984C22.3984 17.708 19.2734 15.6247 19.2734 8.33301Z" fill="white" stroke="white" stroke-width="2" stroke-linecap="round" stroke-linejoin="round"/>
<path d="M14.8254 21.875C14.6422 22.1907 14.3794 22.4528 14.0631 22.6349C13.7468 22.8171 13.3883 22.913 13.0233 22.913C12.6583 22.913 12.2997 22.8171 11.9835 22.6349C11.6672 22.4528 11.4043 22.1907 11.2212 21.875" stroke="white" stroke-width="2" stroke-linecap="round" stroke-linejoin="round"/>
</svg>
