<svg width="26" height="25" viewBox="0 0 26 25" fill="none" xmlns="http://www.w3.org/2000/svg">
<path d="M19.2736 8.3335C19.2736 6.67589 18.6151 5.08618 17.443 3.91408C16.2709 2.74198 14.6812 2.0835 13.0236 2.0835C11.366 2.0835 9.77624 2.74198 8.60414 3.91408C7.43204 5.08618 6.77356 6.67589 6.77356 8.3335C6.77356 15.6252 3.64856 17.7085 3.64856 17.7085H22.3986C22.3986 17.7085 19.2736 15.6252 19.2736 8.3335Z" fill="#641CAE" stroke="#641CAE" stroke-width="2" stroke-linecap="round" stroke-linejoin="round"/>
<path d="M14.8256 21.875C14.6425 22.1907 14.3797 22.4528 14.0634 22.6349C13.7471 22.8171 13.3885 22.913 13.0236 22.913C12.6586 22.913 12.3 22.8171 11.9837 22.6349C11.6675 22.4528 11.4046 22.1907 11.2215 21.875" stroke="#641CAE" stroke-width="2" stroke-linecap="round" stroke-linejoin="round"/>
</svg>
