<svg width="21" height="22" viewBox="0 0 21 22" fill="none" xmlns="http://www.w3.org/2000/svg">
<path d="M12.25 2.47656H5.25C4.78587 2.47656 4.34075 2.66094 4.01256 2.98913C3.68437 3.31731 3.5 3.76243 3.5 4.22656V18.2266C3.5 18.6907 3.68437 19.1358 4.01256 19.464C4.34075 19.7922 4.78587 19.9766 5.25 19.9766H15.75C16.2141 19.9766 16.6592 19.7922 16.9874 19.464C17.3156 19.1358 17.5 18.6907 17.5 18.2266V7.72656L12.25 2.47656Z" stroke="white" stroke-width="2" stroke-linecap="round" stroke-linejoin="round"/>
<path d="M12.25 2.47656V7.72656H17.5" stroke="white" stroke-width="2" stroke-linecap="round" stroke-linejoin="round"/>
<path d="M14 12.1016H7" stroke="white" stroke-width="2" stroke-linecap="round" stroke-linejoin="round"/>
<path d="M14 15.6016H7" stroke="white" stroke-width="2" stroke-linecap="round" stroke-linejoin="round"/>
<path d="M8.75 8.60156H7.875H7" stroke="white" stroke-width="2" stroke-linecap="round" stroke-linejoin="round"/>
</svg>
