<svg width="22" height="21" viewBox="0 0 22 21" fill="none" xmlns="http://www.w3.org/2000/svg">
<path d="M17.5 2.625H5.25C4.2835 2.625 3.5 3.4085 3.5 4.375V16.625C3.5 17.5915 4.2835 18.375 5.25 18.375H17.5C18.4665 18.375 19.25 17.5915 19.25 16.625V4.375C19.25 3.4085 18.4665 2.625 17.5 2.625Z" stroke="white" stroke-width="2" stroke-linecap="round" stroke-linejoin="round"/>
<path d="M8.3125 8.75C9.03737 8.75 9.625 8.16237 9.625 7.4375C9.625 6.71263 9.03737 6.125 8.3125 6.125C7.58763 6.125 7 6.71263 7 7.4375C7 8.16237 7.58763 8.75 8.3125 8.75Z" stroke="white" stroke-width="2" stroke-linecap="round" stroke-linejoin="round"/>
<path d="M19.25 13.125L14.875 8.75L5.25 18.375" stroke="white" stroke-width="2" stroke-linecap="round" stroke-linejoin="round"/>
</svg>
