<svg width="21" height="20" viewBox="0 0 21 20" fill="none" xmlns="http://www.w3.org/2000/svg">
<g clip-path="url(#clip0)">
<path d="M15.0615 1.66675H6.72819C4.427 1.66675 2.56152 3.53223 2.56152 5.83342V14.1667C2.56152 16.4679 4.427 18.3334 6.72819 18.3334H15.0615C17.3627 18.3334 19.2282 16.4679 19.2282 14.1667V5.83342C19.2282 3.53223 17.3627 1.66675 15.0615 1.66675Z" stroke="white" stroke-width="2" stroke-linecap="round" stroke-linejoin="round"/>
<path d="M14.2283 9.47501C14.3311 10.1685 14.2127 10.8769 13.8897 11.4992C13.5668 12.1215 13.0559 12.6262 12.4296 12.9414C11.8034 13.2566 11.0936 13.3663 10.4014 13.255C9.70921 13.1436 9.06974 12.8167 8.57397 12.321C8.0782 11.8252 7.75138 11.1857 7.63999 10.4935C7.52861 9.8013 7.63833 9.09159 7.95354 8.46532C8.26876 7.83905 8.77343 7.32812 9.39576 7.00521C10.0181 6.68229 10.7264 6.56383 11.4199 6.66667C12.1274 6.77158 12.7823 7.10123 13.288 7.60693C13.7937 8.11263 14.1234 8.76757 14.2283 9.47501Z" stroke="white" stroke-width="2" stroke-linecap="round" stroke-linejoin="round"/>
<path d="M15.4775 5.41675H15.4859" stroke="white" stroke-width="2" stroke-linecap="round" stroke-linejoin="round"/>
</g>
<defs>
<clipPath id="clip0">
<rect width="20" height="20" fill="white" transform="translate(0.894531)"/>
</clipPath>
</defs>
</svg>
