<svg width="21" height="20" viewBox="0 0 21 20" fill="none" xmlns="http://www.w3.org/2000/svg">
<g clip-path="url(#clip0)">
<path d="M9.16992 10.8332C9.52751 11.3117 9.98372 11.7075 10.5076 11.994C11.0315 12.2805 11.6109 12.4508 12.2063 12.4935C12.8018 12.5362 13.3995 12.4502 13.9588 12.2414C14.5181 12.0326 15.0261 11.7058 15.4481 11.2832L17.9461 8.78322C18.7045 7.99738 19.1241 6.94487 19.1146 5.85238C19.1051 4.7599 18.6673 3.71485 17.8954 2.94231C17.1235 2.16978 16.0793 1.73157 14.9877 1.72208C13.8961 1.71259 12.8444 2.13256 12.0592 2.89156L10.6271 4.31656" stroke="white" stroke-width="2" stroke-linecap="round" stroke-linejoin="round"/>
<path d="M12.5005 9.16677C12.1429 8.68833 11.6867 8.29245 11.1628 8.00599C10.6389 7.71953 10.0596 7.54918 9.46412 7.50649C8.86865 7.46381 8.27098 7.5498 7.71164 7.75862C7.15229 7.96744 6.64437 8.29421 6.22231 8.71677L3.72434 11.2168C2.96597 12.0026 2.54634 13.0551 2.55582 14.1476C2.56531 15.2401 3.00315 16.2851 3.77506 17.0577C4.54696 17.8302 5.59116 18.2684 6.68276 18.2779C7.77436 18.2874 8.82601 17.8674 9.61121 17.1084L11.035 15.6834" stroke="white" stroke-width="2" stroke-linecap="round" stroke-linejoin="round"/>
</g>
<defs>
<clipPath id="clip0">
<rect width="19.9837" height="20" fill="white" transform="translate(0.84375)"/>
</clipPath>
</defs>
</svg>
