<svg width="21" height="20" viewBox="0 0 21 20" fill="none" xmlns="http://www.w3.org/2000/svg">
<path d="M18.2676 9.58336C18.2704 10.6832 18.0135 11.7683 17.5176 12.75C16.9296 13.9265 16.0257 14.916 14.9071 15.6078C13.7885 16.2995 12.4994 16.6662 11.1842 16.6667C10.0844 16.6696 8.99934 16.4126 8.01758 15.9167L3.26758 17.5L4.85091 12.75C4.35502 11.7683 4.09804 10.6832 4.10091 9.58336C4.10142 8.26815 4.46809 6.97907 5.15984 5.86048C5.8516 4.7419 6.84112 3.838 8.01758 3.25002C8.99934 2.75413 10.0844 2.49716 11.1842 2.50002H11.6009C13.3379 2.59585 14.9784 3.32899 16.2085 4.55907C17.4386 5.78915 18.1718 7.42973 18.2676 9.16669V9.58336Z" stroke="#641CAE" stroke-width="2" stroke-linecap="round" stroke-linejoin="round"/>
</svg>
