<svg width="25" height="25" viewBox="0 0 25 25" fill="none" xmlns="http://www.w3.org/2000/svg">
<path d="M12.5002 13.5413C13.0755 13.5413 13.5418 13.075 13.5418 12.4997C13.5418 11.9244 13.0755 11.458 12.5002 11.458C11.9249 11.458 11.4585 11.9244 11.4585 12.4997C11.4585 13.075 11.9249 13.5413 12.5002 13.5413Z" stroke="white" stroke-width="2" stroke-linecap="round" stroke-linejoin="round"/>
<path d="M12.5002 6.25033C13.0755 6.25033 13.5418 5.78396 13.5418 5.20866C13.5418 4.63336 13.0755 4.16699 12.5002 4.16699C11.9249 4.16699 11.4585 4.63336 11.4585 5.20866C11.4585 5.78396 11.9249 6.25033 12.5002 6.25033Z" stroke="white" stroke-width="2" stroke-linecap="round" stroke-linejoin="round"/>
<path d="M12.5002 20.8333C13.0755 20.8333 13.5418 20.367 13.5418 19.7917C13.5418 19.2164 13.0755 18.75 12.5002 18.75C11.9249 18.75 11.4585 19.2164 11.4585 19.7917C11.4585 20.367 11.9249 20.8333 12.5002 20.8333Z" stroke="white" stroke-width="2" stroke-linecap="round" stroke-linejoin="round"/>
</svg>
