<svg width="24" height="23" viewBox="0 0 24 23" fill="none" xmlns="http://www.w3.org/2000/svg">
<path d="M12 12.371C12.5523 12.371 13 11.9449 13 11.4194C13 10.8938 12.5523 10.4678 12 10.4678C11.4477 10.4678 11 10.8938 11 11.4194C11 11.9449 11.4477 12.371 12 12.371Z" stroke="#641CAE" stroke-width="2" stroke-linecap="round" stroke-linejoin="round"/>
<path d="M12 5.70987C12.5523 5.70987 13 5.28381 13 4.75825C13 4.23269 12.5523 3.80664 12 3.80664C11.4477 3.80664 11 4.23269 11 4.75825C11 5.28381 11.4477 5.70987 12 5.70987Z" stroke="#641CAE" stroke-width="2" stroke-linecap="round" stroke-linejoin="round"/>
<path d="M12 19.0321C12.5523 19.0321 13 18.6061 13 18.0805C13 17.555 12.5523 17.1289 12 17.1289C11.4477 17.1289 11 17.555 11 18.0805C11 18.6061 11.4477 19.0321 12 19.0321Z" stroke="#641CAE" stroke-width="2" stroke-linecap="round" stroke-linejoin="round"/>
</svg>
