<svg width="21" height="20" viewBox="0 0 21 20" fill="none" xmlns="http://www.w3.org/2000/svg">
<g clip-path="url(#clip0)">
<path d="M12.5767 4.16683C13.3906 4.32563 14.1387 4.72371 14.7251 5.31011C15.3115 5.89651 15.7096 6.64455 15.8684 7.4585L12.5767 4.16683ZM12.5767 0.833496C14.2678 1.02136 15.8447 1.77864 17.0486 2.981C18.2524 4.18336 19.0117 5.75934 19.2017 7.45016L12.5767 0.833496ZM18.3684 14.1002V16.6002C18.3693 16.8322 18.3218 17.062 18.2288 17.2746C18.1358 17.4873 17.9994 17.6782 17.8284 17.835C17.6574 17.9919 17.4555 18.1114 17.2356 18.1858C17.0158 18.2601 16.7828 18.2877 16.5517 18.2668C13.9874 17.9882 11.5242 17.1119 9.36002 15.7085C7.34654 14.429 5.63947 12.722 4.36002 10.7085C2.95167 8.5345 2.07522 6.05932 1.80169 3.4835C1.78086 3.25305 1.80825 3.0208 1.8821 2.80152C1.95596 2.58224 2.07466 2.38074 2.23066 2.20985C2.38665 2.03896 2.57652 1.90242 2.78818 1.80893C2.99983 1.71544 3.22864 1.66705 3.46002 1.66683H5.96002C6.36444 1.66285 6.75651 1.80606 7.06315 2.06977C7.3698 2.33349 7.57008 2.6997 7.62669 3.10016C7.73221 3.90022 7.9279 4.68577 8.21002 5.44183C8.32214 5.7401 8.34641 6.06426 8.27994 6.3759C8.21348 6.68753 8.05907 6.97359 7.83502 7.20016L6.77669 8.2585C7.96298 10.3448 9.6904 12.0722 11.7767 13.2585L12.835 12.2002C13.0616 11.9761 13.3476 11.8217 13.6593 11.7552C13.9709 11.6888 14.2951 11.713 14.5934 11.8252C15.3494 12.1073 16.135 12.303 16.935 12.4085C17.3398 12.4656 17.7095 12.6695 17.9738 12.9814C18.2381 13.2933 18.3785 13.6915 18.3684 14.1002Z" stroke="#641CAE" stroke-width="2" stroke-linecap="round" stroke-linejoin="round"/>
</g>
<defs>
<clipPath id="clip0">
<rect width="20" height="20" fill="white" transform="translate(0.0351562)"/>
</clipPath>
</defs>
</svg>
