<svg width="89" height="21" viewBox="0 0 89 21" fill="none" xmlns="http://www.w3.org/2000/svg">
<path d="M36.8755 6.67546C36.1289 5.85413 35.0889 5.44346 33.7555 5.44346C32.6462 5.44346 31.8355 5.65679 31.3235 6.08346C30.8222 6.49946 30.5715 7.06479 30.5715 7.77946C30.5715 8.25946 30.6889 8.64346 30.9235 8.93146C31.1582 9.20879 31.5155 9.43279 31.9955 9.60346C32.4862 9.77413 33.1209 9.93946 33.8995 10.0995C34.7209 10.2701 35.4302 10.4728 36.0275 10.7075C36.6249 10.9315 37.0835 11.2408 37.4035 11.6355C37.7342 12.0301 37.8995 12.5635 37.8995 13.2355C37.8995 14.2381 37.5262 14.9901 36.7795 15.4915C36.0329 15.9928 35.0515 16.2435 33.8355 16.2435C32.0755 16.2435 30.5769 15.6781 29.3395 14.5475L29.7715 13.8915C30.2409 14.3821 30.8222 14.7768 31.5155 15.0755C32.2195 15.3741 33.0035 15.5235 33.8675 15.5235C34.8489 15.5235 35.6222 15.3421 36.1875 14.9795C36.7529 14.6061 37.0355 14.0568 37.0355 13.3315C37.0355 12.8301 36.9022 12.4248 36.6355 12.1155C36.3795 11.8061 35.9849 11.5555 35.4515 11.3635C34.9289 11.1608 34.2675 10.9741 33.4675 10.8035C32.6675 10.6328 31.9902 10.4408 31.4355 10.2275C30.8809 10.0141 30.4595 9.72613 30.1715 9.36346C29.8835 9.00079 29.7395 8.51013 29.7395 7.89146C29.7395 7.20879 29.9049 6.63279 30.2355 6.16346C30.5769 5.68346 31.0462 5.32079 31.6435 5.07546C32.2515 4.83013 32.9555 4.70746 33.7555 4.70746C34.4915 4.70746 35.1475 4.81946 35.7235 5.04346C36.2995 5.25679 36.8222 5.58746 37.2915 6.03546L36.8755 6.67546ZM43.251 16.3075C42.4724 16.3075 41.7684 16.1101 41.139 15.7155C40.5204 15.3208 40.0297 14.7928 39.667 14.1315C39.315 13.4701 39.139 12.7448 39.139 11.9555C39.139 11.1768 39.315 10.4675 39.667 9.82746C40.019 9.17679 40.5044 8.65946 41.123 8.27546C41.7417 7.88079 42.435 7.68346 43.203 7.68346C43.9924 7.68346 44.691 7.88079 45.299 8.27546C45.9177 8.65946 46.403 9.17679 46.755 9.82746C47.107 10.4781 47.283 11.1875 47.283 11.9555C47.283 12.0835 47.2777 12.2008 47.267 12.3075H39.971C40.0137 12.9475 40.1897 13.5235 40.499 14.0355C40.8084 14.5368 41.203 14.9368 41.683 15.2355C42.1737 15.5235 42.707 15.6675 43.283 15.6675C43.859 15.6675 44.403 15.5181 44.915 15.2195C45.427 14.9208 45.7844 14.5368 45.987 14.0675L46.691 14.2595C46.531 14.6541 46.275 15.0061 45.923 15.3155C45.5817 15.6248 45.1764 15.8701 44.707 16.0515C44.2484 16.2221 43.763 16.3075 43.251 16.3075ZM39.939 11.6835H46.515C46.4724 11.0328 46.2964 10.4568 45.987 9.95546C45.6884 9.44346 45.299 9.04879 44.819 8.77146C44.339 8.48346 43.8057 8.33946 43.219 8.33946C42.6324 8.33946 42.099 8.48346 41.619 8.77146C41.139 9.05946 40.7497 9.45946 40.451 9.97146C40.1524 10.4728 39.9817 11.0435 39.939 11.6835ZM48.3552 13.7475C48.3552 13.2568 48.4992 12.8248 48.7872 12.4515C49.0858 12.0781 49.4965 11.7901 50.0192 11.5875C50.5525 11.3741 51.1605 11.2675 51.8432 11.2675C52.2698 11.2675 52.7125 11.3048 53.1712 11.3795C53.6405 11.4541 54.0512 11.5555 54.4032 11.6835V10.8995C54.4032 10.1315 54.1792 9.51813 53.7312 9.05946C53.2832 8.60079 52.6752 8.37146 51.9072 8.37146C51.4912 8.37146 51.0592 8.45679 50.6112 8.62746C50.1632 8.79813 49.7045 9.04346 49.2352 9.36346L48.8992 8.78746C49.9872 8.05146 51.0165 7.68346 51.9872 7.68346C52.9685 7.68346 53.7472 7.97679 54.3232 8.56346C54.9098 9.15013 55.2032 9.95013 55.2032 10.9635V15.0915C55.2032 15.3475 55.3205 15.4808 55.5552 15.4915V16.1475C55.3525 16.1688 55.2192 16.1741 55.1552 16.1635C54.9525 16.1421 54.7925 16.0568 54.6752 15.9075C54.5685 15.7581 54.5098 15.6035 54.4992 15.4435V14.7875C54.1152 15.2675 53.6192 15.6408 53.0112 15.9075C52.4138 16.1741 51.7845 16.3075 51.1232 16.3075C50.6005 16.3075 50.1258 16.1955 49.6992 15.9715C49.2832 15.7368 48.9525 15.4275 48.7072 15.0435C48.4725 14.6595 48.3552 14.2275 48.3552 13.7475ZM54.0832 14.4355C54.2965 14.1688 54.4032 13.9181 54.4032 13.6835V12.3075C53.6352 12.0088 52.8085 11.8595 51.9232 11.8595C51.0805 11.8595 50.4032 12.0301 49.8912 12.3715C49.3792 12.7021 49.1232 13.1448 49.1232 13.6995C49.1232 14.0515 49.2138 14.3768 49.3952 14.6755C49.5765 14.9741 49.8272 15.2141 50.1472 15.3955C50.4778 15.5768 50.8565 15.6675 51.2832 15.6675C51.8805 15.6675 52.4298 15.5555 52.9312 15.3315C53.4325 15.0968 53.8165 14.7981 54.0832 14.4355ZM61.5729 8.54746C60.8262 8.56879 60.1702 8.79279 59.6049 9.21946C59.0502 9.63546 58.6609 10.2115 58.4369 10.9475V16.1475H57.6369V7.82746H58.4049V9.87546C58.6929 9.29946 59.0769 8.82479 59.5569 8.45146C60.0369 8.07813 60.5436 7.86479 61.0769 7.81146C61.1836 7.81146 61.2742 7.81146 61.3489 7.81146C61.4342 7.80079 61.5089 7.79546 61.5729 7.79546V8.54746ZM66.3135 16.3075C65.5349 16.3075 64.8362 16.1101 64.2175 15.7155C63.5989 15.3208 63.1082 14.7928 62.7455 14.1315C62.3829 13.4701 62.2015 12.7448 62.2015 11.9555C62.2015 11.1661 62.3775 10.4515 62.7295 9.81146C63.0815 9.16079 63.5669 8.64346 64.1855 8.25946C64.8042 7.87546 65.5082 7.68346 66.2975 7.68346C67.0549 7.68346 67.7215 7.85946 68.2975 8.21146C68.8735 8.55279 69.3055 9.02213 69.5935 9.61946L68.8095 9.87546C68.5642 9.41679 68.2122 9.05946 67.7535 8.80346C67.3055 8.53679 66.8095 8.40346 66.2655 8.40346C65.6575 8.40346 65.1082 8.56346 64.6175 8.88346C64.1269 9.19279 63.7322 9.61413 63.4335 10.1475C63.1455 10.6808 63.0015 11.2835 63.0015 11.9555C63.0015 12.6275 63.1509 13.2408 63.4495 13.7955C63.7482 14.3395 64.1429 14.7768 64.6335 15.1075C65.1349 15.4275 65.6842 15.5875 66.2815 15.5875C66.6655 15.5875 67.0389 15.5181 67.4015 15.3795C67.7749 15.2301 68.0949 15.0381 68.3615 14.8035C68.6389 14.5688 68.8202 14.3181 68.9055 14.0515L69.6895 14.2755C69.5509 14.6701 69.3109 15.0221 68.9695 15.3315C68.6389 15.6301 68.2442 15.8701 67.7855 16.0515C67.3269 16.2221 66.8362 16.3075 66.3135 16.3075ZM78.2963 16.1475H77.4963V11.5075C77.4963 9.44879 76.8083 8.41946 75.4323 8.41946C74.9843 8.41946 74.547 8.53146 74.1203 8.75546C73.6936 8.97946 73.315 9.28879 72.9843 9.68346C72.6643 10.0675 72.435 10.5048 72.2963 10.9955V16.1475H71.4963V4.46746H72.2963V9.81146C72.6376 9.16079 73.1123 8.64346 73.7203 8.25946C74.3283 7.87546 74.9736 7.68346 75.6563 7.68346C76.5843 7.68346 77.2563 8.01413 77.6723 8.67546C78.0883 9.32613 78.2963 10.2221 78.2963 11.3635V16.1475ZM80.539 16.1475V14.7875H81.243V16.1475H80.539ZM83.3672 16.1475V14.7875H84.0712V16.1475H83.3672ZM86.1953 16.1475V14.7875H86.8993V16.1475H86.1953Z" fill="#641CAE"/>
<g opacity="0.5">
<path d="M9.16667 16.4945C12.8486 16.4945 15.8333 13.5097 15.8333 9.8278C15.8333 6.1459 12.8486 3.16113 9.16667 3.16113C5.48477 3.16113 2.5 6.1459 2.5 9.8278C2.5 13.5097 5.48477 16.4945 9.16667 16.4945Z" stroke="#641CAE" stroke-width="2" stroke-linecap="round" stroke-linejoin="round"/>
<path d="M17.5 18.1611L13.875 14.5361" stroke="#641CAE" stroke-width="2" stroke-linecap="round" stroke-linejoin="round"/>
</g>
</svg>
