<svg width="92" height="21" viewBox="0 0 92 21" fill="none" xmlns="http://www.w3.org/2000/svg">
<path d="M38.064 6.91546C37.744 6.56346 37.3173 6.27546 36.784 6.05146C36.2507 5.81679 35.6427 5.69946 34.96 5.69946C33.9573 5.69946 33.2267 5.89146 32.768 6.27546C32.3093 6.64879 32.08 7.16079 32.08 7.81146C32.08 8.25946 32.192 8.61146 32.416 8.86746C32.64 9.12346 32.9813 9.33679 33.44 9.50746C33.9093 9.66746 34.5067 9.82746 35.232 9.98746C36.0427 10.1581 36.7413 10.3608 37.328 10.5955C37.9147 10.8301 38.368 11.1501 38.688 11.5555C39.008 11.9501 39.168 12.4888 39.168 13.1715C39.168 13.8648 38.992 14.4408 38.64 14.8995C38.288 15.3581 37.8027 15.6995 37.184 15.9235C36.5653 16.1368 35.8613 16.2435 35.072 16.2435C33.3013 16.2435 31.7813 15.6941 30.512 14.5955L31.072 13.6835C31.4773 14.1101 32.032 14.4781 32.736 14.7875C33.4507 15.0968 34.24 15.2515 35.104 15.2515C36 15.2515 36.704 15.0861 37.216 14.7555C37.728 14.4248 37.984 13.9341 37.984 13.2835C37.984 12.8141 37.856 12.4408 37.6 12.1635C37.344 11.8755 36.96 11.6408 36.448 11.4595C35.936 11.2781 35.3067 11.1021 34.56 10.9315C33.7707 10.7501 33.104 10.5475 32.56 10.3235C32.0267 10.0995 31.6213 9.80613 31.344 9.44346C31.0667 9.08079 30.928 8.59013 30.928 7.97146C30.928 7.26746 31.0987 6.67546 31.44 6.19546C31.792 5.70479 32.272 5.33679 32.88 5.09146C33.488 4.83546 34.1867 4.70746 34.976 4.70746C35.7227 4.70746 36.3947 4.82479 36.992 5.05946C37.5893 5.28346 38.128 5.60346 38.608 6.01946L38.064 6.91546ZM44.5188 16.3075C43.7188 16.3075 43.0041 16.1101 42.3748 15.7155C41.7454 15.3208 41.2494 14.7928 40.8868 14.1315C40.5241 13.4701 40.3428 12.7448 40.3428 11.9555C40.3428 11.1768 40.5188 10.4621 40.8708 9.81146C41.2334 9.16079 41.7294 8.64346 42.3588 8.25946C42.9881 7.86479 43.7028 7.66746 44.5028 7.66746C45.3241 7.66746 46.0441 7.86479 46.6628 8.25946C47.2814 8.65413 47.7614 9.17679 48.1028 9.82746C48.4548 10.4675 48.6308 11.1715 48.6308 11.9395C48.6308 12.1101 48.6254 12.2541 48.6148 12.3715H41.4788C41.5321 12.9688 41.7028 13.5021 41.9908 13.9715C42.2788 14.4301 42.6468 14.7981 43.0948 15.0755C43.5428 15.3421 44.0334 15.4755 44.5668 15.4755C45.1108 15.4755 45.6228 15.3368 46.1028 15.0595C46.5828 14.7821 46.9241 14.4195 47.1268 13.9715L48.0708 14.2275C47.9001 14.6328 47.6334 14.9955 47.2708 15.3155C46.9188 15.6248 46.5081 15.8701 46.0388 16.0515C45.5694 16.2221 45.0628 16.3075 44.5188 16.3075ZM41.4468 11.5875H47.6068C47.5641 10.9901 47.3988 10.4621 47.1108 10.0035C46.8228 9.53413 46.4548 9.17146 46.0068 8.91546C45.5588 8.64879 45.0628 8.51546 44.5188 8.51546C43.9748 8.51546 43.4788 8.64879 43.0308 8.91546C42.5828 9.17146 42.2148 9.53413 41.9268 10.0035C41.6494 10.4621 41.4894 10.9901 41.4468 11.5875ZM49.6374 13.7475C49.6374 13.2355 49.7867 12.7928 50.0854 12.4195C50.384 12.0355 50.7947 11.7368 51.3174 11.5235C51.8507 11.3101 52.464 11.2035 53.1574 11.2035C53.5627 11.2035 53.984 11.2408 54.4214 11.3155C54.8587 11.3795 55.248 11.4701 55.5894 11.5875V10.8835C55.5894 10.1795 55.3814 9.61946 54.9654 9.20346C54.5494 8.78746 53.9734 8.57946 53.2374 8.57946C52.8 8.57946 52.3627 8.66479 51.9254 8.83546C51.488 8.99546 51.0347 9.23546 50.5654 9.55546L50.1494 8.78746C50.6934 8.41413 51.2267 8.13679 51.7494 7.95546C52.272 7.76346 52.8054 7.66746 53.3494 7.66746C54.3734 7.66746 55.184 7.96079 55.7814 8.54746C56.3787 9.13413 56.6774 9.94479 56.6774 10.9795V14.8355C56.6774 15.1235 56.8107 15.2728 57.0774 15.2835V16.1475C56.8427 16.1795 56.6774 16.1901 56.5814 16.1795C56.3147 16.1688 56.112 16.0835 55.9734 15.9235C55.8347 15.7635 55.76 15.5928 55.7494 15.4115L55.7334 14.8035C55.36 15.2835 54.8747 15.6568 54.2774 15.9235C53.68 16.1795 53.072 16.3075 52.4534 16.3075C51.9094 16.3075 51.424 16.1955 50.9974 15.9715C50.5707 15.7368 50.2347 15.4275 49.9894 15.0435C49.7547 14.6488 49.6374 14.2168 49.6374 13.7475ZM55.2214 14.3875C55.4667 14.0995 55.5894 13.8328 55.5894 13.5875V12.3715C54.8534 12.0835 54.0854 11.9395 53.2854 11.9395C52.5067 11.9395 51.8774 12.0941 51.3974 12.4035C50.9174 12.7128 50.6774 13.1341 50.6774 13.6675C50.6774 14.1261 50.8534 14.5421 51.2054 14.9155C51.568 15.2888 52.0694 15.4755 52.7094 15.4755C53.232 15.4755 53.7174 15.3741 54.1654 15.1715C54.624 14.9688 54.976 14.7075 55.2214 14.3875ZM63.1881 8.77146C62.4628 8.79279 61.8228 8.99546 61.2681 9.37946C60.7241 9.76346 60.3401 10.2915 60.1161 10.9635V16.1475H59.0281V7.81146H60.0521V9.81146C60.3401 9.22479 60.7188 8.75013 61.1881 8.38746C61.6681 8.02479 62.1748 7.82213 62.7081 7.77946C62.8148 7.76879 62.9055 7.76346 62.9801 7.76346C63.0548 7.76346 63.1241 7.76879 63.1881 7.77946V8.77146ZM68.0035 16.3075C67.1928 16.3075 66.4728 16.1101 65.8435 15.7155C65.2142 15.3101 64.7182 14.7821 64.3555 14.1315C63.9928 13.4701 63.8115 12.7448 63.8115 11.9555C63.8115 11.1661 63.9875 10.4515 64.3395 9.81146C64.6915 9.16079 65.1822 8.64346 65.8115 8.25946C66.4408 7.86479 67.1662 7.66746 67.9875 7.66746C68.7662 7.66746 69.4488 7.84879 70.0355 8.21146C70.6328 8.56346 71.0808 9.04346 71.3795 9.65146L70.3235 9.98746C70.0888 9.56079 69.7582 9.23013 69.3315 8.99546C68.9155 8.75013 68.4515 8.62746 67.9395 8.62746C67.3742 8.62746 66.8622 8.77146 66.4035 9.05946C65.9555 9.34746 65.5928 9.74746 65.3155 10.2595C65.0488 10.7608 64.9155 11.3261 64.9155 11.9555C64.9155 12.5848 65.0542 13.1555 65.3315 13.6675C65.6088 14.1795 65.9768 14.5901 66.4355 14.8995C66.8942 15.1981 67.4008 15.3475 67.9555 15.3475C68.3182 15.3475 68.6702 15.2835 69.0115 15.1555C69.3528 15.0275 69.6462 14.8568 69.8915 14.6435C70.1368 14.4195 70.3022 14.1795 70.3875 13.9235L71.4595 14.2435C71.3102 14.6381 71.0648 14.9955 70.7235 15.3155C70.3822 15.6248 69.9768 15.8701 69.5075 16.0515C69.0382 16.2221 68.5368 16.3075 68.0035 16.3075ZM80.1768 16.1475H79.0888V11.4915C79.0888 9.60346 78.4488 8.65946 77.1688 8.65946C76.7528 8.65946 76.3474 8.76613 75.9528 8.97946C75.5581 9.18213 75.2061 9.46479 74.8968 9.82746C74.5981 10.1795 74.3848 10.5848 74.2568 11.0435V16.1475H73.1688V4.46746H74.2568V9.69946C74.5874 9.08079 75.0461 8.59013 75.6328 8.22746C76.2301 7.85413 76.8648 7.66746 77.5368 7.66746C78.1768 7.66746 78.6888 7.82213 79.0728 8.13146C79.4568 8.43013 79.7341 8.85146 79.9048 9.39546C80.0861 9.92879 80.1768 10.5528 80.1768 11.2675V16.1475ZM82.3369 16.1475V14.5795H83.2809V16.1475H82.3369ZM85.3681 16.1475V14.5795H86.3121V16.1475H85.3681ZM88.3994 16.1475V14.5795H89.3434V16.1475H88.3994Z" fill="white"/>
<path d="M9.16667 16.4945C12.8486 16.4945 15.8333 13.5097 15.8333 9.8278C15.8333 6.1459 12.8486 3.16113 9.16667 3.16113C5.48477 3.16113 2.5 6.1459 2.5 9.8278C2.5 13.5097 5.48477 16.4945 9.16667 16.4945Z" stroke="white" stroke-width="2" stroke-linecap="round" stroke-linejoin="round"/>
<path d="M17.5 18.1611L13.875 14.5361" stroke="white" stroke-width="2" stroke-linecap="round" stroke-linejoin="round"/>
</svg>
