<svg width="25" height="25" viewBox="0 0 25 25" fill="none" xmlns="http://www.w3.org/2000/svg">
<path d="M12.5 15.625C14.2259 15.625 15.625 14.2259 15.625 12.5C15.625 10.7741 14.2259 9.375 12.5 9.375C10.7741 9.375 9.375 10.7741 9.375 12.5C9.375 14.2259 10.7741 15.625 12.5 15.625Z" stroke="white" stroke-width="2" stroke-linecap="round" stroke-linejoin="round"/>
<path d="M20.2082 15.6248C20.0695 15.939 20.0281 16.2875 20.0894 16.6254C20.1507 16.9634 20.3118 17.2752 20.5519 17.5207L20.6144 17.5832C20.8081 17.7767 20.9618 18.0064 21.0666 18.2593C21.1715 18.5122 21.2254 18.7833 21.2254 19.0571C21.2254 19.3309 21.1715 19.602 21.0666 19.8549C20.9618 20.1078 20.8081 20.3376 20.6144 20.5311C20.4209 20.7248 20.1912 20.8784 19.9383 20.9833C19.6853 21.0881 19.4142 21.1421 19.1405 21.1421C18.8667 21.1421 18.5956 21.0881 18.3427 20.9833C18.0898 20.8784 17.86 20.7248 17.6665 20.5311L17.604 20.4686C17.3585 20.2284 17.0467 20.0673 16.7088 20.0061C16.3709 19.9448 16.0224 19.9862 15.7082 20.1248C15.4001 20.2569 15.1373 20.4761 14.9522 20.7556C14.7672 21.0351 14.6678 21.3626 14.6665 21.6978V21.8748C14.6665 22.4274 14.447 22.9573 14.0563 23.348C13.6656 23.7387 13.1357 23.9582 12.5832 23.9582C12.0306 23.9582 11.5007 23.7387 11.11 23.348C10.7193 22.9573 10.4998 22.4274 10.4998 21.8748V21.7811C10.4918 21.4363 10.3802 21.1019 10.1795 20.8214C9.9789 20.5409 9.69852 20.3272 9.37484 20.2082C9.06065 20.0695 8.71213 20.0281 8.37422 20.0894C8.03631 20.1507 7.7245 20.3118 7.479 20.5519L7.4165 20.6144C7.22302 20.8081 6.99325 20.9618 6.74034 21.0666C6.48742 21.1715 6.21633 21.2254 5.94254 21.2254C5.66876 21.2254 5.39767 21.1715 5.14475 21.0666C4.89184 20.9618 4.66207 20.8081 4.46859 20.6144C4.27489 20.4209 4.12122 20.1912 4.01638 19.9383C3.91154 19.6853 3.85757 19.4142 3.85757 19.1405C3.85757 18.8667 3.91154 18.5956 4.01638 18.3427C4.12122 18.0898 4.27489 17.86 4.46859 17.6665L4.53109 17.604C4.77123 17.3585 4.93232 17.0467 4.99359 16.7088C5.05486 16.3709 5.0135 16.0224 4.87484 15.7082C4.74279 15.4001 4.52354 15.1373 4.24407 14.9522C3.9646 14.7672 3.63711 14.6678 3.30192 14.6665H3.12484C2.5723 14.6665 2.0424 14.447 1.6517 14.0563C1.261 13.6656 1.0415 13.1357 1.0415 12.5832C1.0415 12.0306 1.261 11.5007 1.6517 11.11C2.0424 10.7193 2.5723 10.4998 3.12484 10.4998H3.21859C3.56337 10.4918 3.89776 10.3802 4.17827 10.1795C4.45879 9.9789 4.67246 9.69852 4.7915 9.37484C4.93016 9.06065 4.97153 8.71213 4.91026 8.37422C4.84899 8.03631 4.6879 7.7245 4.44775 7.479L4.38525 7.4165C4.19155 7.22302 4.03789 6.99325 3.93305 6.74034C3.8282 6.48742 3.77424 6.21633 3.77424 5.94254C3.77424 5.66876 3.8282 5.39767 3.93305 5.14475C4.03789 4.89184 4.19155 4.66207 4.38525 4.46859C4.57874 4.27489 4.80851 4.12122 5.06142 4.01638C5.31433 3.91154 5.58543 3.85757 5.85921 3.85757C6.13299 3.85757 6.40409 3.91154 6.657 4.01638C6.90992 4.12122 7.13968 4.27489 7.33317 4.46859L7.39567 4.53109C7.64117 4.77123 7.95298 4.93232 8.29089 4.99359C8.6288 5.05486 8.97732 5.0135 9.2915 4.87484H9.37484C9.68293 4.74279 9.94569 4.52354 10.1308 4.24407C10.3158 3.9646 10.4152 3.63711 10.4165 3.30192V3.12484C10.4165 2.5723 10.636 2.0424 11.0267 1.6517C11.4174 1.261 11.9473 1.0415 12.4998 1.0415C13.0524 1.0415 13.5823 1.261 13.973 1.6517C14.3637 2.0424 14.5832 2.5723 14.5832 3.12484V3.21859C14.5845 3.55378 14.6838 3.88127 14.8689 4.16074C15.054 4.44021 15.3167 4.65946 15.6248 4.7915C15.939 4.93016 16.2875 4.97153 16.6254 4.91026C16.9634 4.84899 17.2752 4.6879 17.5207 4.44775L17.5832 4.38525C17.7767 4.19155 18.0064 4.03789 18.2593 3.93305C18.5122 3.8282 18.7833 3.77424 19.0571 3.77424C19.3309 3.77424 19.602 3.8282 19.8549 3.93305C20.1078 4.03789 20.3376 4.19155 20.5311 4.38525C20.7248 4.57874 20.8784 4.80851 20.9833 5.06142C21.0881 5.31433 21.1421 5.58543 21.1421 5.85921C21.1421 6.13299 21.0881 6.40409 20.9833 6.657C20.8784 6.90992 20.7248 7.13968 20.5311 7.33317L20.4686 7.39567C20.2284 7.64117 20.0673 7.95298 20.0061 8.29089C19.9448 8.6288 19.9862 8.97732 20.1248 9.2915V9.37484C20.2569 9.68293 20.4761 9.94569 20.7556 10.1308C21.0351 10.3158 21.3626 10.4152 21.6978 10.4165H21.8748C22.4274 10.4165 22.9573 10.636 23.348 11.0267C23.7387 11.4174 23.9582 11.9473 23.9582 12.4998C23.9582 13.0524 23.7387 13.5823 23.348 13.973C22.9573 14.3637 22.4274 14.5832 21.8748 14.5832H21.7811C21.4459 14.5845 21.1184 14.6838 20.8389 14.8689C20.5595 15.054 20.3402 15.3167 20.2082 15.6248V15.6248Z" stroke="white" stroke-width="2" stroke-linecap="round" stroke-linejoin="round"/>
</svg>
