<svg width="35" height="35" viewBox="0 0 35 35" fill="none" xmlns="http://www.w3.org/2000/svg">
<g clip-path="url(#clip0)">
<path d="M17.4148 21.8252C19.8193 21.8252 21.7685 19.8709 21.7685 17.4602C21.7685 15.0495 19.8193 13.0952 17.4148 13.0952C15.0103 13.0952 13.061 15.0495 13.061 17.4602C13.061 19.8709 15.0103 21.8252 17.4148 21.8252Z" stroke="#641CAE" stroke-width="2" stroke-linecap="round" stroke-linejoin="round"/>
<path d="M28.1542 21.8251C27.961 22.2639 27.9034 22.7507 27.9887 23.2227C28.0741 23.6947 28.2985 24.1303 28.6331 24.4732L28.7202 24.5605C28.99 24.8307 29.2041 25.1517 29.3502 25.5049C29.4962 25.8582 29.5714 26.2369 29.5714 26.6193C29.5714 27.0017 29.4962 27.3804 29.3502 27.7337C29.2041 28.0869 28.99 28.4079 28.7202 28.6781C28.4506 28.9487 28.1305 29.1633 27.7781 29.3098C27.4258 29.4562 27.0481 29.5316 26.6666 29.5316C26.2852 29.5316 25.9075 29.4562 25.5552 29.3098C25.2028 29.1633 24.8827 28.9487 24.6131 28.6781L24.526 28.5908C24.184 28.2554 23.7496 28.0304 23.2788 27.9448C22.808 27.8592 22.3225 27.917 21.8848 28.1107C21.4555 28.2951 21.0895 28.6014 20.8316 28.9917C20.5738 29.3821 20.4354 29.8395 20.4335 30.3077V30.5551C20.4335 31.3269 20.1277 32.067 19.5834 32.6128C19.0391 33.1585 18.3008 33.4651 17.531 33.4651C16.7612 33.4651 16.023 33.1585 15.4786 32.6128C14.9343 32.067 14.6285 31.3269 14.6285 30.5551V30.4241C14.6173 29.9425 14.4618 29.4755 14.1823 29.0836C13.9028 28.6918 13.5121 28.3934 13.0612 28.2271C12.6235 28.0334 12.1379 27.9756 11.6671 28.0612C11.1963 28.1468 10.7619 28.3718 10.4199 28.7072L10.3328 28.7945C10.0633 29.0651 9.74314 29.2797 9.39079 29.4262C9.03843 29.5726 8.66074 29.648 8.2793 29.648C7.89787 29.648 7.52018 29.5726 7.16782 29.4262C6.81546 29.2797 6.49535 29.0651 6.22578 28.7945C5.95592 28.5243 5.74183 28.2033 5.59577 27.8501C5.4497 27.4968 5.37452 27.1181 5.37452 26.7357C5.37452 26.3533 5.4497 25.9746 5.59577 25.6213C5.74183 25.2681 5.95592 24.9471 6.22578 24.6769L6.31286 24.5896C6.64743 24.2467 6.87186 23.8111 6.95722 23.3391C7.04258 22.8671 6.98495 22.3803 6.79177 21.9415C6.60781 21.5111 6.30235 21.1441 5.91299 20.8856C5.52363 20.6271 5.06738 20.4883 4.60038 20.4865H4.35367C3.58388 20.4865 2.84562 20.1799 2.30129 19.6342C1.75697 19.0884 1.45117 18.3483 1.45117 17.5765C1.45117 16.8047 1.75697 16.0645 2.30129 15.5188C2.84562 14.9731 3.58388 14.6665 4.35367 14.6665H4.48428C4.96464 14.6552 5.43051 14.4993 5.82132 14.2191C6.21213 13.9388 6.50982 13.5472 6.67567 13.0951C6.86885 12.6562 6.92648 12.1694 6.84112 11.6974C6.75576 11.2254 6.53133 10.7899 6.19676 10.447L6.10968 10.3597C5.83982 10.0894 5.62573 9.76848 5.47967 9.41521C5.3336 9.06194 5.25842 8.68327 5.25842 8.30085C5.25842 7.91843 5.3336 7.53976 5.47967 7.1865C5.62573 6.83323 5.83982 6.51229 6.10968 6.24203C6.37925 5.97147 6.69936 5.75683 7.05172 5.61038C7.40408 5.46394 7.78177 5.38856 8.1632 5.38856C8.54464 5.38856 8.92233 5.46394 9.27469 5.61038C9.62704 5.75683 9.94716 5.97147 10.2167 6.24203L10.3038 6.32933C10.6458 6.66476 11.0802 6.88977 11.551 6.97535C12.0218 7.06094 12.5074 7.00316 12.9451 6.80948H13.0612C13.4904 6.62504 13.8565 6.31879 14.1143 5.92842C14.3722 5.53806 14.5106 5.08063 14.5124 4.61243V4.36508C14.5124 3.5933 14.8182 2.85313 15.3625 2.3074C15.9069 1.76167 16.6451 1.45508 17.4149 1.45508C18.1847 1.45508 18.923 1.76167 19.4673 2.3074C20.0116 2.85313 20.3174 3.5933 20.3174 4.36508V4.49603C20.3193 4.96423 20.4577 5.42166 20.7155 5.81202C20.9734 6.20239 21.3394 6.50864 21.7687 6.69308C22.2064 6.88676 22.6919 6.94454 23.1627 6.85895C23.6335 6.77337 24.0679 6.54836 24.4099 6.21293L24.497 6.12563C24.7666 5.85507 25.0867 5.64043 25.4391 5.49398C25.7914 5.34754 26.1691 5.27216 26.5505 5.27216C26.932 5.27216 27.3097 5.34754 27.662 5.49398C28.0144 5.64043 28.3345 5.85507 28.6041 6.12563C28.8739 6.39589 29.088 6.71683 29.2341 7.0701C29.3801 7.42336 29.4553 7.80203 29.4553 8.18445C29.4553 8.56687 29.3801 8.94554 29.2341 9.29881C29.088 9.65208 28.8739 9.97302 28.6041 10.2433L28.517 10.3306C28.1824 10.6735 27.958 11.109 27.8726 11.581C27.7873 12.053 27.8449 12.5398 28.0381 12.9787V13.0951C28.222 13.5254 28.5275 13.8924 28.9169 14.151C29.3062 14.4095 29.7625 14.5482 30.2295 14.5501H30.4762C31.246 14.5501 31.9842 14.8567 32.5285 15.4024C33.0729 15.9481 33.3787 16.6883 33.3787 17.4601C33.3787 18.2319 33.0729 18.972 32.5285 19.5178C31.9842 20.0635 31.246 20.3701 30.4762 20.3701H30.3456C29.8786 20.3719 29.4223 20.5107 29.033 20.7692C28.6436 21.0277 28.3381 21.3947 28.1542 21.8251V21.8251Z" stroke="#641CAE" stroke-width="2" stroke-linecap="round" stroke-linejoin="round"/>
</g>
<defs>
<clipPath id="clip0">
<rect width="34.83" height="34.92" fill="white"/>
</clipPath>
</defs>
</svg>
