<svg width="25" height="25" viewBox="0 0 25 25" fill="none" xmlns="http://www.w3.org/2000/svg">
<path d="M16.6667 21.5V19.7917C16.6667 18.6866 16.2277 17.6268 15.4463 16.8454C14.6649 16.064 13.6051 15.625 12.5 15.625H5.20834C4.10327 15.625 3.04346 16.064 2.26206 16.8454C1.48066 17.6268 1.04167 18.6866 1.04167 19.7917L0.999985 21.5" fill="#641CAE"/>
<path d="M16.6667 21.5V19.7917C16.6667 18.6866 16.2277 17.6268 15.4463 16.8454C14.6649 16.064 13.6051 15.625 12.5 15.625H5.20834C4.10327 15.625 3.04346 16.064 2.26206 16.8454C1.48066 17.6268 1.04167 18.6866 1.04167 19.7917L0.999985 21.5C2.19998 21.5 11.9444 21.375 16.6667 21.5Z" stroke="#641CAE" stroke-width="2" stroke-linecap="round" stroke-linejoin="round"/>
<path d="M8.85417 11.4583C11.1554 11.4583 13.0208 9.59285 13.0208 7.29167C13.0208 4.99048 11.1554 3.125 8.85417 3.125C6.55298 3.125 4.6875 4.99048 4.6875 7.29167C4.6875 9.59285 6.55298 11.4583 8.85417 11.4583Z" fill="#641CAE" stroke="#641CAE" stroke-width="2" stroke-linecap="round" stroke-linejoin="round"/>
<path d="M20.8333 8.3335V14.5835" stroke="#641CAE" stroke-width="2" stroke-linecap="round" stroke-linejoin="round"/>
<path d="M23.9583 11.4585H17.7083" stroke="#641CAE" stroke-width="2" stroke-linecap="round" stroke-linejoin="round"/>
</svg>
