<svg width="35" height="36" viewBox="0 0 35 36" fill="none" xmlns="http://www.w3.org/2000/svg">
<path d="M24.668 31.4036V28.4934C24.668 26.9497 24.0564 25.4692 22.9679 24.3776C21.8794 23.2861 20.4031 22.6729 18.8638 22.6729H7.25537C5.716 22.6729 4.23968 23.2861 3.15118 24.3776C2.06268 25.4692 1.45117 26.9497 1.45117 28.4934V31.4036" stroke="#641CAE" stroke-width="2" stroke-linecap="round" stroke-linejoin="round"/>
<path d="M13.0596 16.852C16.2651 16.852 18.8638 14.246 18.8638 11.0315C18.8638 7.81687 16.2651 5.21094 13.0596 5.21094C9.854 5.21094 7.25537 7.81687 7.25537 11.0315C7.25537 14.246 9.854 16.852 13.0596 16.852Z" stroke="#641CAE" stroke-width="2" stroke-linecap="round" stroke-linejoin="round"/>
<path d="M33.3741 31.4029V28.4927C33.3732 27.203 32.9451 25.9502 32.1572 24.931C31.3693 23.9117 30.2662 23.1837 29.021 22.8613" stroke="#641CAE" stroke-width="2" stroke-linecap="round" stroke-linejoin="round"/>
<path d="M23.2168 5.40039C24.4653 5.72096 25.5719 6.4491 26.3621 7.47003C27.1524 8.49097 27.5813 9.74661 27.5813 11.039C27.5813 12.3314 27.1524 13.5871 26.3621 14.608C25.5719 15.6289 24.4653 16.3571 23.2168 16.6776" stroke="#641CAE" stroke-width="2" stroke-linecap="round" stroke-linejoin="round"/>
</svg>
