<svg width="25" height="26" viewBox="0 0 25 26" fill="none" xmlns="http://www.w3.org/2000/svg">
<path d="M17.7082 22.7212V20.6379C17.7082 19.5328 17.2692 18.473 16.4878 17.6916C15.7064 16.9102 14.6466 16.4712 13.5415 16.4712H5.20817C4.1031 16.4712 3.04329 16.9102 2.26189 17.6916C1.48049 18.473 1.0415 19.5328 1.0415 20.6379V22.7212" stroke="white" stroke-width="2" stroke-linecap="round" stroke-linejoin="round"/>
<path d="M9.37516 12.3045C11.6763 12.3045 13.5418 10.439 13.5418 8.13786C13.5418 5.83667 11.6763 3.97119 9.37516 3.97119C7.07398 3.97119 5.2085 5.83667 5.2085 8.13786C5.2085 10.439 7.07398 12.3045 9.37516 12.3045Z" stroke="white" stroke-width="2" stroke-linecap="round" stroke-linejoin="round"/>
<path d="M23.9585 22.721V20.6377C23.9578 19.7145 23.6505 18.8177 23.0849 18.088C22.5193 17.3584 21.7274 16.8372 20.8335 16.6064" stroke="white" stroke-width="2" stroke-linecap="round" stroke-linejoin="round"/>
<path d="M16.6665 4.10645C17.5628 4.33593 18.3572 4.85718 18.9245 5.58802C19.4918 6.31886 19.7997 7.21773 19.7997 8.1429C19.7997 9.06808 19.4918 9.96694 18.9245 10.6978C18.3572 11.4286 17.5628 11.9499 16.6665 12.1794" stroke="white" stroke-width="2" stroke-linecap="round" stroke-linejoin="round"/>
</svg>
